# xmcd CD database file
#
# Track frame offsets:
#	150
#	13450
#	29126
#	46320
#	62687
#	76305
#	85371
#	102894
#	116993
#	129609
#	142453
#	161341
#	181728
#	201787
#	213263
#	230652
#	249388
#	274171
#
# Disc length: 3814 seconds
#
# Revision: 2
# Processed by: cddbd v1.5.2PL0 Copyright (c) Steve Scherf et al.
# Submitted via: CDex 1.70beta2
#
DISCID=0d0ee412
DTITLE=Shirley Bassey - Diamonds are forever CD 1
DYEAR=2003
DGENRE=Jazz
TTITLE0=What now my love
TTITLE1=Something
TTITLE2=As long as he needs me
TTITLE3=Kiss me honey, honey
TTITLE4=As i love you
TTITLE5=Big spender
TTITLE6=Send in the clowns
TTITLE7=I am what i am
TTITLE8=Goldfinger
TTITLE9=I who have nothing
TTITLE10=Natalie
TTITLE11=And i love you so
TTITLE12=Never, never, never
TTITLE13=For all we know
TTITLE14=This is my life
TTITLE15=If you don' t understand
TTITLE16=The greatest love of all
TTITLE17=Diamonds are forever
EXTD=YEAR: 2003
EXTT0=
EXTT1=
EXTT2=
EXTT3=
EXTT4=
EXTT5=
EXTT6=
EXTT7=
EXTT8=
EXTT9=
EXTT10=
EXTT11=
EXTT12=
EXTT13=
EXTT14=
EXTT15=
EXTT16=
EXTT17=
PLAYORDER=
